<svg width="570.43" height="108" version="1.1" viewBox="0 0 570.43 108" xml:space="preserve" xmlns="http://www.w3.org/2000/svg"><defs><style> .cls-1 {fill: #faa51a;} .cls-2, .cls-3 {fill: #fff;} .cls-3 {fill: #1f3151ff} .cls-4 {stroke-width: .62px;} .cls-4, .cls-5 {fill: none;stroke: #1f3151;} .cls-4, .cls-5, .cls-6 {stroke-miterlimit: 10;} .cls-5 {stroke-width: .94px;} .cls-6 {fill: url(#b);stroke: url(#a);} .cls-7 {fill: #1f3151;} .cls-3 {font-family: NotoMono, 'Noto Mono';font-size: 37.17px;} .cls-8 {fill: #ffca37;}</style><linearGradient id="b" x1="25.68" x2="25.68" y1="50.86" y2=".5" gradientUnits="userSpaceOnUse"><stop stop-color="#fff" offset="0"/><stop stop-color="#1f3151" offset="1"/></linearGradient><linearGradient id="a" x1="25.68" x2="25.68" y1="51.36" gradientUnits="userSpaceOnUse"><stop stop-color="#fff" offset="0"/><stop stop-color="#e7e9ed" offset=".05"/><stop stop-color="#b3b9c4" offset=".19"/><stop stop-color="#858fa0" offset=".33"/><stop stop-color="#606d84" offset=".46"/><stop stop-color="#43526d" offset=".6"/><stop stop-color="#2f405d" offset=".74"/><stop stop-color="#233454" offset=".87"/><stop stop-color="#1f3151" offset="1"/></linearGradient></defs><g transform="matrix(6.6229 0 0 6.6229 -442.44 -909.24)"><g transform="matrix(.26458 0 0 .26458 69.82 141.9)"><g transform="matrix(1.2 0 0 1.2 -11.402 -17.432)"><circle class="cls-6" cx="25.68" cy="25.68" r="25.18" fill="url(#b)" stroke="url(#a)"/><path class="cls-7" d="m36.75 35.44s-0.45 7.03-0.99 7.03c0 0-3.63-5.74-3.63-6.65h-0.03c0.2-0.44 0.31-0.93 0.31-1.43l0.74-5.76c0.61 1.03 3.59 6 3.59 6.81z"/><path class="cls-2" d="m33.16 28.63-0.74 5.76c0 0.5-0.11 0.99-0.31 1.42-0.5 1.18-1.64 2.01-2.97 2.11-0.08 0.01-0.17 0.01-0.26 0.01h-5.6c-1.55 0-2.89-1.01-3.35-2.42-0.12-0.35-0.19-0.73-0.19-1.12l-0.8-6.32-1.04-8.32c-0.5-4 0.45-8.05 2.72-11.39 2.12-3.08 4.63-6.08 5.68-6.08 0.53 0 1.4 0.77 2.4 1.93s2.12 2.72 3.13 4.28c2.12 3.27 2.97 7.2 2.49 11.08l-1.16 9.07zm-3.89-11.86c0-1.76-1.42-3.16-3.16-3.16s-3.16 1.4-3.16 3.16 1.42 3.15 3.16 3.15 3.16-1.4 3.16-3.15zm-1.05 9.37c0-1.14-0.92-2.04-2.04-2.04s-2.04 0.91-2.04 2.04 0.92 2.04 2.04 2.04 2.04-0.92 2.04-2.04z"/><path class="cls-8" d="m29.13 37.93c0.59 1.15 1.7 4.59 1.54 5.89-0.12 1.08-2.85 3.27-3.77 4.36-0.19 0.23-0.51 0.26-0.73 0.05-1.23-1.15-4.07-3.05-4.41-4.15-0.46-1.53 0.47-4.56 1.49-5.84 0.05 1.6 2.22 4.43 2.92 4.45 0.91 0 2.59-3.3 2.7-4.77 0.08 0 0.17 0 0.26-0.01v0.02z"/><path class="cls-1" d="m23.25 38.25c0-0.12 0.01-0.23 0.03-0.32h5.6c-0.11 1.47-1.8 4.77-2.7 4.77-0.7-0.01-2.87-2.85-2.92-4.45z"/><path class="cls-7" d="m26.11 13.6c1.74 0 3.16 1.4 3.16 3.16s-1.42 3.15-3.16 3.15-3.16-1.4-3.16-3.15 1.42-3.16 3.16-3.16z"/><path class="cls-7" d="m26.17 24.1c1.12 0 2.04 0.91 2.04 2.04s-0.92 2.04-2.04 2.04-2.04-0.92-2.04-2.04 0.92-2.04 2.04-2.04z"/><path class="cls-7" d="m19.74 34.39c0 0.39 0.07 0.77 0.19 1.12 0 0.91-4.19 6.65-4.19 6.65-0.63 0-1.14-7.04-1.14-7.04 0-0.91 4.32-7.05 4.32-7.05h0.01l0.8 6.32z"/><path class="cls-5" d="m28.88 37.93h-5.6c-1.55 0-2.89-1.01-3.35-2.42-0.12-0.35-0.19-0.73-0.19-1.12l-0.8-6.32-1.04-8.32c-0.5-4 0.45-8.05 2.72-11.39 2.12-3.08 4.63-6.08 5.68-6.08 0.53 0 1.4 0.77 2.4 1.93s2.12 2.72 3.13 4.28c2.12 3.27 2.97 7.2 2.49 11.08l-1.16 9.07-0.74 5.76c0 0.5-0.11 0.99-0.31 1.42-0.5 1.18-1.64 2.01-2.97 2.11-0.08 0.01-0.17 0.01-0.26 0.01z"/><path class="cls-5" d="m29.27 16.77c0 1.74-1.42 3.15-3.16 3.15s-3.16-1.4-3.16-3.15 1.42-3.16 3.16-3.16 3.16 1.4 3.16 3.16z"/><path class="cls-5" d="m28.22 26.14c0 1.12-0.92 2.04-2.04 2.04s-2.04-0.92-2.04-2.04 0.92-2.04 2.04-2.04 2.04 0.91 2.04 2.04z"/><path class="cls-5" d="m19.93 35.51c0 0.91-4.19 6.65-4.19 6.65-0.63 0-1.14-7.04-1.14-7.04 0-0.91 4.32-7.05 4.32-7.05"/><path class="cls-5" d="m32.13 35.82c0 0.91 3.63 6.65 3.63 6.65 0.54 0 0.99-7.03 0.99-7.03 0-0.81-2.98-5.78-3.59-6.81-0.08-0.12-0.12-0.19-0.12-0.19"/><path class="cls-5" d="m23.28 37.93c-0.01 0.09-0.03 0.2-0.03 0.32 0.05 1.6 2.22 4.43 2.92 4.45 0.91 0 2.59-3.3 2.7-4.77"/><path class="cls-5" d="m23.39 38.09c-0.04 0.05-0.08 0.09-0.13 0.16-1.01 1.28-1.95 4.31-1.49 5.84 0.34 1.1 3.18 3 4.41 4.15 0.22 0.2 0.54 0.17 0.73-0.05 0.92-1.1 3.65-3.28 3.77-4.36 0.16-1.3-0.95-4.74-1.54-5.89"/><circle class="cls-2" cx="27.57" cy="15.25" r="1.07"/><circle class="cls-2" cx="27.1" cy="25" r=".71"/><line class="cls-4" x1="19.74" x2="32" y1="34.19" y2="34.19"/><path class="cls-4" d="m18.93 11.84c2.04-1.63 4.65-2.53 7.27-2.5 2.61 0.03 5.2 0.98 7.21 2.65"/></g><g transform="translate(0 -1.5051)"><path class="cls-3" transform="translate(60.18,36.57)" d="m23.268-7.7135q0 1.579-0.74413 3.1217-0.72598 1.5427-2.0509 2.6135-1.452 1.1616-3.3939 1.8149-1.9238 0.65338-4.6462 0.65338-2.9221 0-5.2633-0.54448-2.3231-0.54448-4.737-1.6153v-4.5011h0.25409q2.0509 1.706 4.737 2.6317 2.6861 0.92562 5.0455 0.92562 3.3395 0 5.1907-1.2523 1.8694-1.2523 1.8694-3.3395 0-1.7968-0.88932-2.6498-0.87117-0.85302-2.668-1.3249-1.3612-0.36299-2.9584-0.59893-1.579-0.23594-3.3576-0.59893-3.5936-0.76228-5.3359-2.5954-1.7242-1.8512-1.7242-4.8096 0-3.3939 2.8676-5.5537 2.8676-2.1779 7.2779-2.1779 2.8495 0 5.227 0.54448t4.2107 1.3431v4.247h-0.25409q-1.5427-1.3068-4.0655-2.1598-2.5046-0.87117-5.1363-0.87117-2.8858 0-4.6463 1.1979-1.7423 1.1979-1.7423 3.0854 0 1.6879 0.87117 2.6498 0.87117 0.96192 3.0673 1.4701 1.1616 0.25409 3.3032 0.61708 2.1416 0.36299 3.6299 0.74413 3.0128 0.79857 4.5374 2.4139 1.5246 1.6153 1.5246 4.5192zm20.491 6.443q-1.706 0.81672-3.2487 1.2705-1.5246 0.45374-3.2487 0.45374-2.1961 0-4.0292-0.63523-1.8331-0.65338-3.1398-1.9601-1.3249-1.3068-2.0509-3.3032-0.72598-1.9964-0.72598-4.6644 0-4.9729 2.7224-7.8042 2.7406-2.8313 7.2235-2.8313 1.7423 0 3.4121 0.49003 1.6879 0.49003 3.0854 1.1979v3.7932h-0.18149q-1.5608-1.216-3.2306-1.8694-1.6516-0.65338-3.2306-0.65338-2.9039 0-4.5918 1.9601-1.6697 1.942-1.6697 5.7171 0 3.6662 1.6334 5.6445 1.6516 1.9601 4.6281 1.9601 1.0345 0 2.1053-0.27224 1.0708-0.27224 1.9238-0.70783 0.74413-0.38114 1.3975-0.79857 0.65338-0.43559 1.0345-0.74413h0.18149zm21.344-8.5121h-14.937q0 1.8694 0.56263 3.2669 0.56263 1.3794 1.5427 2.2687 0.94377 0.87117 2.2324 1.3068 1.3068 0.43559 2.8676 0.43559 2.069 0 4.1562-0.81672 2.1053-0.83487 2.9947-1.6334h0.18149v3.7206q-1.7242 0.72598-3.521 1.216-1.7968 0.49003-3.7751 0.49003-5.0455 0-7.8768-2.7224-2.8313-2.7406-2.8313-7.7679 0-4.9729 2.7043-7.895 2.7224-2.9221 7.1509-2.9221 4.1018 0 6.316 2.3957 2.2324 2.3957 2.2324 6.806zm-3.3213-2.6135q-0.01815-2.6861-1.3612-4.1562-1.3249-1.4701-4.0473-1.4701-2.7406 0-4.374 1.6153-1.6153 1.6153-1.8331 4.011zm25.445 12.396h-3.4121v-11.543q0-1.3975-0.16334-2.6135-0.16334-1.2342-0.59893-1.9238-0.45374-0.76228-1.3068-1.1253-0.85302-0.38114-2.2142-0.38114-1.3975 0-2.9221 0.68968-1.5246 0.68968-2.9221 1.7605v15.137h-3.4121v-20.273h3.4121v2.2505q1.5971-1.3249 3.3032-2.069t3.5028-0.74413q3.285 0 5.0092 1.9783 1.7242 1.9783 1.7242 5.6989zm23.54-9.7825h-14.937q0 1.8694 0.56263 3.2669 0.56263 1.3794 1.5427 2.2687 0.94377 0.87117 2.2324 1.3068 1.3068 0.43559 2.8676 0.43559 2.069 0 4.1562-0.81672 2.1053-0.83487 2.9946-1.6334h0.1815v3.7206q-1.7242 0.72598-3.521 1.216-1.7968 0.49003-3.7751 0.49003-5.0455 0-7.8768-2.7224-2.8313-2.7406-2.8313-7.7679 0-4.9729 2.7043-7.895 2.7224-2.9221 7.1509-2.9221 4.1018 0 6.316 2.3957 2.2324 2.3957 2.2324 6.806zm-3.3214-2.6135q-0.0181-2.6861-1.3612-4.1562-1.3249-1.4701-4.0473-1.4701-2.7406 0-4.374 1.6153-1.6153 1.6153-1.8331 4.011zm21.144-4.1562h-0.18149q-0.76228-0.18149-1.4882-0.25409-0.70783-0.09075-1.6879-0.09075-1.579 0-3.0491 0.70783-1.4701 0.68968-2.8313 1.7968v14.392h-3.4121v-20.273h3.4121v2.9947q2.0327-1.6334 3.5754-2.305 1.5608-0.68968 3.1761-0.68968 0.88932 0 1.2886 0.05445 0.39929 0.0363 1.1979 0.16334zm20.745-3.7206-11.833 27.75h-3.648l3.7751-8.4576-8.0765-19.293h3.7025l6.2252 15.028 6.2797-15.028zm24.375 12.559q0 1.579-0.74413 3.1217-0.72597 1.5427-2.0509 2.6135-1.452 1.1616-3.3939 1.8149-1.9238 0.65338-4.6462 0.65338-2.9221 0-5.2633-0.54448-2.3231-0.54448-4.737-1.6153v-4.5011h0.25409q2.0509 1.706 4.737 2.6317 2.6861 0.92562 5.0455 0.92562 3.3395 0 5.1907-1.2523 1.8694-1.2523 1.8694-3.3395 0-1.7968-0.88932-2.6498-0.87117-0.85302-2.668-1.3249-1.3612-0.36299-2.9584-0.59893-1.579-0.23594-3.3576-0.59893-3.5936-0.76228-5.3359-2.5954-1.7242-1.8512-1.7242-4.8096 0-3.3939 2.8676-5.5537 2.8676-2.1779 7.2779-2.1779 2.8495 0 5.227 0.54448t4.2107 1.3431v4.247h-0.25409q-1.5427-1.3068-4.0655-2.1598-2.5046-0.87117-5.1363-0.87117-2.8858 0-4.6462 1.1979-1.7423 1.1979-1.7423 3.0854 0 1.6879 0.87117 2.6498t3.0672 1.4701q1.1616 0.25409 3.3032 0.61708 2.1416 0.36299 3.6299 0.74413 3.0128 0.79857 4.5374 2.4139 1.5246 1.6153 1.5246 4.5192zm16.026 7.532q-0.96192 0.25409-2.1053 0.41744-1.1253 0.16334-2.0146 0.16334-3.1035 0-4.7188-1.6697-1.6153-1.6697-1.6153-5.3541v-10.781h-2.305v-2.8676h2.305v-5.826h3.4121v5.826h7.042v2.8676h-7.042v9.2381q0 1.5971 0.0726 2.5046 0.0726 0.88932 0.50818 1.6697 0.39929 0.72598 1.089 1.0708 0.70782 0.32669 2.1416 0.32669 0.83487 0 1.7423-0.23594 0.90747-0.25409 1.3068-0.41744h0.18149zm19.874 0.18149h-3.3939v-2.1598q-0.45374 0.30854-1.2342 0.87117-0.76228 0.54448-1.4882 0.87117-0.85303 0.41744-1.9601 0.68968-1.1071 0.29039-2.5954 0.29039-2.7406 0-4.6462-1.8149-1.9057-1.8149-1.9057-4.6281 0-2.305 0.98006-3.7206 0.99822-1.4338 2.8313-2.2505 1.8512-0.81672 4.4466-1.1071 2.5954-0.29039 5.5719-0.43559v-0.52633q0-1.1616-0.41744-1.9238-0.39929-0.76228-1.1616-1.1979-0.72598-0.41744-1.7423-0.56263-1.0164-0.1452-2.1235-0.1452-1.343 0-2.9946 0.36299-1.6516 0.34484-3.4121 1.0164h-0.18149v-3.4665q0.99821-0.27224 2.8858-0.59893 1.8875-0.32669 3.7206-0.32669 2.1416 0 3.7206 0.36299 1.5972 0.34484 2.7587 1.1979 1.1434 0.83487 1.7424 2.1598t0.59893 3.285zm-3.3939-4.9911v-5.6445q-1.5608 0.09075-3.6843 0.27224-2.1053 0.18149-3.3395 0.52633-1.4701 0.41744-2.3776 1.3068-0.90747 0.87117-0.90747 2.4139 0 1.7423 1.0527 2.6317 1.0527 0.87117 3.2124 0.87117 1.7968 0 3.285-0.68968 1.4882-0.70783 2.7587-1.6879zm24.955 3.7206q-1.706 0.81672-3.2488 1.2705-1.5246 0.45374-3.2487 0.45374-2.1961 0-4.0292-0.63523-1.8331-0.65338-3.1398-1.9601-1.3249-1.3068-2.0509-3.3032-0.72598-1.9964-0.72598-4.6644 0-4.9729 2.7224-7.8042 2.7406-2.8313 7.2235-2.8313 1.7423 0 3.4121 0.49003 1.6879 0.49003 3.0854 1.1979v3.7932h-0.18149q-1.5608-1.216-3.2306-1.8694-1.6516-0.65338-3.2306-0.65338-2.9039 0-4.5918 1.9601-1.6697 1.942-1.6697 5.7171 0 3.6662 1.6334 5.6445 1.6516 1.9601 4.6281 1.9601 1.0345 0 2.1053-0.27224 1.0708-0.27224 1.9238-0.70783 0.74413-0.38114 1.3975-0.79857 0.65338-0.43559 1.0345-0.74413h0.18149zm22.778 1.2705h-4.5011l-8.1309-8.8751-2.2142 2.1053v6.7697h-3.4121v-28.24h3.4121v18.113l9.8551-10.146h4.3014l-9.4196 9.3651z" fill="#1f3151" aria-label="SceneryStack"/><path transform="translate(-386.48 -527.99)" d="m462.04 528.91h-1.9336v-12.529l-4.043 8.5254h-1.1523l-4.0137-8.5254v12.529h-1.8066v-14.541h2.6367l3.877 8.0957 3.75-8.0957h2.6855zm12.236 0h-1.8262v-1.1621q-0.24414 0.16601-0.66406 0.46875-0.41016 0.29296-0.80079 0.46875-0.45898 0.22461-1.0547 0.37109-0.59571 0.15625-1.3965 0.15625-1.4746 0-2.5-0.97656-1.0254-0.97657-1.0254-2.4902 0-1.2402 0.52735-2.002 0.53711-0.77148 1.5234-1.2109 0.9961-0.43945 2.3926-0.5957 1.3965-0.15625 2.998-0.23438v-0.2832q0-0.625-0.22461-1.0352-0.21484-0.41015-0.625-0.64453-0.39063-0.22461-0.9375-0.30273-0.54688-0.0781-1.1426-0.0781-0.72266 0-1.6113 0.19532-0.88867 0.18554-1.8359 0.54687h-0.0977v-1.8652q0.53711-0.14649 1.5527-0.32227 1.0156-0.17578 2.002-0.17578 1.1523 0 2.002 0.19531 0.85937 0.18555 1.4844 0.64453 0.61524 0.44922 0.9375 1.1621 0.32227 0.71289 0.32227 1.7676zm-1.8262-2.6856v-3.0371q-0.83985 0.0488-1.9824 0.14648-1.1328 0.0977-1.7969 0.28321-0.79101 0.22461-1.2793 0.70312-0.48828 0.46875-0.48828 1.2988 0 0.9375 0.56641 1.416 0.56641 0.46875 1.7285 0.46875 0.96679 0 1.7676-0.3711 0.80078-0.38086 1.4844-0.9082zm14.209 2.6856h-1.8359v-1.1426q-0.79102 0.68359-1.6504 1.0644-0.85937 0.38086-1.8652 0.38086-1.9531 0-3.1055-1.5039-1.1426-1.5039-1.1426-4.1699 0-1.3867 0.39063-2.4707 0.40039-1.084 1.0742-1.8457 0.66406-0.74219 1.543-1.1328 0.88867-0.39062 1.8359-0.39062 0.85938 0 1.5234 0.18554 0.66406 0.17579 1.3965 0.55665v-4.7266h1.8359zm-1.8359-2.6856v-6.2598q-0.74219-0.33203-1.3281-0.45898t-1.2793-0.12695q-1.543 0-2.4023 1.0742-0.85938 1.0742-0.85938 3.0469 0 1.9434 0.66407 2.959 0.66406 1.0059 2.1289 1.0059 0.78125 0 1.582-0.34179 0.80079-0.35157 1.4942-0.89844zm14.58-2.5781h-8.0371q0 1.0059 0.30274 1.7578 0.30273 0.74218 0.83008 1.2207 0.50781 0.46875 1.2012 0.70312 0.70312 0.23438 1.543 0.23438 1.1133 0 2.2363-0.43945 1.1328-0.44922 1.6113-0.87891h0.0977v2.002q-0.92773 0.39063-1.8945 0.6543t-2.0312 0.26367q-2.7148 0-4.2383-1.4648-1.5234-1.4746-1.5234-4.1797 0-2.6758 1.4551-4.248 1.4648-1.5723 3.8476-1.5723 2.207 0 3.3984 1.2891 1.2012 1.2891 1.2012 3.6621zm-1.7871-1.4062q-0.01-1.4453-0.73242-2.2363-0.71289-0.79102-2.1777-0.79102-1.4746 0-2.3535 0.86914-0.86914 0.86914-0.98633 2.1582zm25.322-4.2383-2.8418 10.908h-1.6992l-2.8027-8.4082-2.7832 8.4082h-1.6895l-2.8711-10.908h1.9141l2.002 8.4473 2.7246-8.4473h1.5137l2.793 8.4473 1.8945-8.4473zm4.6191-1.8262h-2.0703v-1.9043h2.0703zm-0.11719 12.734h-1.8359v-10.908h1.8359zm9.2969-0.0977q-0.51758 0.13672-1.1328 0.22461-0.60547 0.0879-1.084 0.0879-1.6699 0-2.5391-0.89844t-0.86914-2.8809v-5.8008h-1.2402v-1.543h1.2402v-3.1348h1.8359v3.1348h3.7891v1.543h-3.7891v4.9707q0 0.85938 0.0391 1.3477 0.0391 0.47852 0.27344 0.89844 0.21484 0.39062 0.58593 0.57617 0.38086 0.17578 1.1524 0.17578 0.44922 0 0.9375-0.12695 0.48828-0.13672 0.70312-0.22461h0.0977zm11.338 0.0977h-1.8359v-6.2109q0-0.75196-0.0879-1.4062-0.0879-0.66406-0.32227-1.0352-0.24414-0.41015-0.70312-0.60547-0.45898-0.20508-1.1914-0.20508-0.75195 0-1.5723 0.3711-0.82031 0.37109-1.5723 0.94726v8.1445h-1.8359v-15.195h1.8359v5.498q0.85938-0.71289 1.7774-1.1133 0.91796-0.40039 1.8848-0.40039 1.7676 0 2.6953 1.0644 0.92774 1.0644 0.92774 3.0664z" fill="#121c2f" fill-opacity=".75" style="white-space:pre" aria-label="Made with"/></g></g></g></svg>
