<?xml version="1.0" encoding="UTF-8" standalone="no"?>
<!-- Created with Inkscape (http://www.inkscape.org/) -->

<svg
   width="86.129364mm"
   height="16.306805mm"
   viewBox="0 0 86.129364 16.306805"
   version="1.1"
   id="svg1"
   xml:space="preserve"
   xmlns="http://www.w3.org/2000/svg"
   xmlns:svg="http://www.w3.org/2000/svg"><defs
     id="defs1"><style
       id="style1">
      .cls-1 {
        fill: #faa51a;
      }

      .cls-2, .cls-3 {
        fill: #fff;
      }

      .cls-4 {
        stroke-width: .62px;
      }

      .cls-4, .cls-5 {
        fill: none;
        stroke: #1f3151;
      }

      .cls-4, .cls-5, .cls-6 {
        stroke-miterlimit: 10;
      }

      .cls-5 {
        stroke-width: .94px;
      }

      .cls-6 {
        fill: url(#linear-gradient);
        stroke: url(#linear-gradient-2);
      }

      .cls-7 {
        fill: #1f3151;
      }

      .cls-3 {
        font-family: NotoMono, 'Noto Mono';
        font-size: 37.17px;
      }

      .cls-8 {
        fill: #ffca37;
      }
    </style><linearGradient
       id="linear-gradient"
       x1="25.68"
       y1="50.860001"
       x2="25.68"
       y2="0.5"
       gradientUnits="userSpaceOnUse"><stop
         offset="0"
         stop-color="#fff"
         id="stop1" /><stop
         offset="1"
         stop-color="#1f3151"
         id="stop2" /></linearGradient><linearGradient
       id="linear-gradient-2"
       x1="25.68"
       y1="51.360001"
       x2="25.68"
       y2="0"
       gradientUnits="userSpaceOnUse"><stop
         offset="0"
         stop-color="#fff"
         id="stop3" /><stop
         offset=".05"
         stop-color="#e7e9ed"
         id="stop4" /><stop
         offset=".19"
         stop-color="#b3b9c4"
         id="stop5" /><stop
         offset=".33"
         stop-color="#858fa0"
         id="stop6" /><stop
         offset=".46"
         stop-color="#606d84"
         id="stop7" /><stop
         offset=".6"
         stop-color="#43526d"
         id="stop8" /><stop
         offset=".74"
         stop-color="#2f405d"
         id="stop9" /><stop
         offset=".87"
         stop-color="#233454"
         id="stop10" /><stop
         offset="1"
         stop-color="#1f3151"
         id="stop11" /></linearGradient></defs><g
     id="layer1"
     transform="translate(-66.803685,-137.28671)"><g
       id="g13"
       transform="matrix(0.26458333,0,0,0.26458333,69.820396,141.8989)"><g
         id="g12"
         transform="matrix(1.2,0,0,1.2,-11.401742,-17.431867)"><circle
           class="cls-6"
           cx="25.68"
           cy="25.68"
           r="25.18"
           id="circle11"
           style="fill:url(#linear-gradient);stroke:url(#linear-gradient-2)" /><g
           id="g11"><g
             id="g43"><g
               id="g42"><g
                 id="g34"><path
                   id="path28"
                   class="cls-7"
                   d="m 36.75,35.44 c 0,0 -0.45,7.03 -0.99,7.03 0,0 -3.63,-5.74 -3.63,-6.65 H 32.1 c 0.2,-0.44 0.31,-0.93 0.31,-1.43 l 0.74,-5.76 c 0.61,1.03 3.59,6 3.59,6.81 v 0 z" /><path
                   id="path29"
                   class="cls-2"
                   d="m 33.16,28.63 -0.74,5.76 c 0,0.5 -0.11,0.99 -0.31,1.42 -0.5,1.18 -1.64,2.01 -2.97,2.11 -0.08,0.01 -0.17,0.01 -0.26,0.01 h -5.6 c -1.55,0 -2.89,-1.01 -3.35,-2.42 -0.12,-0.35 -0.19,-0.73 -0.19,-1.12 l -0.8,-6.32 -1.04,-8.32 c -0.5,-4 0.45,-8.05 2.72,-11.39 2.12,-3.08 4.63,-6.08 5.68,-6.08 0.53,0 1.4,0.77 2.4,1.93 1,1.16 2.12,2.72 3.13,4.28 2.12,3.27 2.97,7.2 2.49,11.08 l -1.16,9.07 z M 29.27,16.77 c 0,-1.76 -1.42,-3.16 -3.16,-3.16 -1.74,0 -3.16,1.4 -3.16,3.16 0,1.76 1.42,3.15 3.16,3.15 1.74,0 3.16,-1.4 3.16,-3.15 z m -1.05,9.37 c 0,-1.14 -0.92,-2.04 -2.04,-2.04 -1.12,0 -2.04,0.91 -2.04,2.04 0,1.13 0.92,2.04 2.04,2.04 1.12,0 2.04,-0.92 2.04,-2.04 z" /><path
                   id="path30"
                   class="cls-8"
                   d="m 29.13,37.93 c 0.59,1.15 1.7,4.59 1.54,5.89 -0.12,1.08 -2.85,3.27 -3.77,4.36 -0.19,0.23 -0.51,0.26 -0.73,0.05 -1.23,-1.15 -4.07,-3.05 -4.41,-4.15 -0.46,-1.53 0.47,-4.56 1.49,-5.84 0.05,1.6 2.22,4.43 2.92,4.45 0.91,0 2.59,-3.3 2.7,-4.77 0.08,0 0.17,0 0.26,-0.01 v 0 c 0,0 0,0.02 0,0.02 z" /><path
                   id="path31"
                   class="cls-1"
                   d="m 23.25,38.25 c 0,-0.12 0.01,-0.23 0.03,-0.32 h 5.6 c -0.11,1.47 -1.8,4.77 -2.7,4.77 -0.7,-0.01 -2.87,-2.85 -2.92,-4.45 z" /><path
                   id="path32"
                   class="cls-7"
                   d="m 26.11,13.6 c 1.74,0 3.16,1.4 3.16,3.16 0,1.76 -1.42,3.15 -3.16,3.15 -1.74,0 -3.16,-1.4 -3.16,-3.15 0,-1.75 1.42,-3.16 3.16,-3.16 z" /><path
                   id="path33"
                   class="cls-7"
                   d="m 26.17,24.1 c 1.12,0 2.04,0.91 2.04,2.04 0,1.13 -0.92,2.04 -2.04,2.04 -1.12,0 -2.04,-0.92 -2.04,-2.04 0,-1.12 0.92,-2.04 2.04,-2.04 z" /><path
                   id="path34"
                   class="cls-7"
                   d="m 19.74,34.39 c 0,0.39 0.07,0.77 0.19,1.12 0,0.91 -4.19,6.65 -4.19,6.65 -0.63,0 -1.14,-7.04 -1.14,-7.04 0,-0.91 4.32,-7.05 4.32,-7.05 h 0.01 l 0.8,6.32 v 0 z" /></g><g
                 id="g41"><path
                   id="path35"
                   class="cls-5"
                   d="m 28.88,37.93 h -5.6 c -1.55,0 -2.89,-1.01 -3.35,-2.42 -0.12,-0.35 -0.19,-0.73 -0.19,-1.12 l -0.8,-6.32 -1.04,-8.32 c -0.5,-4 0.45,-8.05 2.72,-11.39 2.12,-3.08 4.63,-6.08 5.68,-6.08 0.53,0 1.4,0.77 2.4,1.93 1,1.16 2.12,2.72 3.13,4.28 2.12,3.27 2.97,7.2 2.49,11.08 l -1.16,9.07 -0.74,5.76 c 0,0.5 -0.11,0.99 -0.31,1.42 -0.5,1.18 -1.64,2.01 -2.97,2.11 -0.08,0.01 -0.17,0.01 -0.26,0.01 z" /><path
                   id="path36"
                   class="cls-5"
                   d="m 29.27,16.77 c 0,1.74 -1.42,3.15 -3.16,3.15 -1.74,0 -3.16,-1.4 -3.16,-3.15 0,-1.75 1.42,-3.16 3.16,-3.16 1.74,0 3.16,1.4 3.16,3.16 z" /><path
                   id="path37"
                   class="cls-5"
                   d="m 28.22,26.14 c 0,1.12 -0.92,2.04 -2.04,2.04 -1.12,0 -2.04,-0.92 -2.04,-2.04 0,-1.12 0.92,-2.04 2.04,-2.04 1.12,0 2.04,0.91 2.04,2.04 z" /><path
                   id="path38"
                   class="cls-5"
                   d="m 19.93,35.51 c 0,0.91 -4.19,6.65 -4.19,6.65 -0.63,0 -1.14,-7.04 -1.14,-7.04 0,-0.91 4.32,-7.05 4.32,-7.05" /><path
                   id="path39"
                   class="cls-5"
                   d="m 32.13,35.82 c 0,0.91 3.63,6.65 3.63,6.65 0.54,0 0.99,-7.03 0.99,-7.03 0,-0.81 -2.98,-5.78 -3.59,-6.81 -0.08,-0.12 -0.12,-0.19 -0.12,-0.19" /><path
                   id="path40"
                   class="cls-5"
                   d="m 23.28,37.93 c -0.01,0.09 -0.03,0.2 -0.03,0.32 0.05,1.6 2.22,4.43 2.92,4.45 0.91,0 2.59,-3.3 2.7,-4.77" /><path
                   id="path41"
                   class="cls-5"
                   d="m 23.39,38.09 c -0.04,0.05 -0.08,0.09 -0.13,0.16 -1.01,1.28 -1.95,4.31 -1.49,5.84 0.34,1.1 3.18,3 4.41,4.15 0.22,0.2 0.54,0.17 0.73,-0.05 0.92,-1.1 3.65,-3.28 3.77,-4.36 0.16,-1.3 -0.95,-4.74 -1.54,-5.89" /></g></g><circle
               id="circle42"
               class="cls-2"
               cx="27.57"
               cy="15.25"
               r="1.0700001" /><circle
               id="circle43"
               class="cls-2"
               cx="27.1"
               cy="25"
               r="0.70999998" /></g><line
             id="line43"
             class="cls-4"
             x1="19.74"
             y1="34.189999"
             x2="32"
             y2="34.189999" /><path
             id="path43"
             class="cls-4"
             d="m 18.93,11.84 c 2.04,-1.63 4.65,-2.53 7.27,-2.5 2.61,0.03 5.2,0.98 7.21,2.65" /></g></g><g
         id="g1"
         transform="translate(0,-1.505082)"><path
           d="m 23.267548,-7.7135006 q 0,1.5789989 -0.744126,3.1216991 -0.725977,1.5427001 -2.050884,2.6135155 -1.451953,1.16156241 -3.39394,1.81494128 -1.923838,0.65337888 -4.64625,0.65337888 -2.9220555,0 -5.2633298,-0.5444824 Q 4.8458933,-0.59893063 2.4320214,-1.669746 v -4.5010545 h 0.2540917 q 2.0508837,1.7060449 4.7369969,2.6316649 2.686113,0.9256201 5.045537,0.9256201 3.339492,0 5.190732,-1.2523095 1.86939,-1.2523095 1.86939,-3.339492 0,-1.7967919 -0.889322,-2.6498144 -0.871172,-0.8530226 -2.667963,-1.3249076 -1.361206,-0.362988 -2.958355,-0.59893 -1.578999,-0.235943 -3.3576412,-0.598931 -3.5935838,-0.762275 -5.3359275,-2.595366 -1.7241942,-1.85124 -1.7241942,-4.809594 0,-3.393941 2.8676073,-5.553721 2.8676072,-2.177929 7.2779146,-2.177929 2.849458,0 5.227031,0.544482 2.377573,0.544482 4.210664,1.343057 v 4.246962 h -0.254092 q -1.5427,-1.306757 -4.065468,-2.15978 -2.504619,-0.871172 -5.136284,-0.871172 -2.8857571,0 -4.6462501,1.197862 -1.7423437,1.197861 -1.7423437,3.0854 0,1.687895 0.8711718,2.649814 0.8711719,0.961919 3.067251,1.470103 1.161562,0.254091 3.303193,0.61708 2.141631,0.362988 3.629883,0.744126 3.012802,0.798574 4.537353,2.413872 1.524551,1.615297 1.524551,4.5192034 z m 20.490686,6.4430417 Q 42.05219,-0.45373533 40.50949,0 q -1.524551,0.45373533 -3.248745,0.45373533 -2.196079,0 -4.02917,-0.63522946 -1.833091,-0.65337888 -3.139849,-1.96013667 -1.324907,-1.3067577 -2.050883,-3.3031932 -0.725977,-1.9964354 -0.725977,-4.664399 0,-4.972939 2.722412,-7.804248 2.740562,-2.831308 7.223467,-2.831308 1.742343,0 3.412089,0.490034 1.687896,0.490034 3.0854,1.197861 v 3.793228 H 43.57674 q -1.560849,-1.216011 -3.230595,-1.86939 -1.651597,-0.653379 -3.230596,-0.653379 -2.903906,0 -4.591801,1.960137 -1.669746,1.941987 -1.669746,5.717065 0,3.6661813 1.633447,5.6444674 1.651597,1.9601366 4.6281,1.9601366 1.034517,0 2.105332,-0.2722412 1.070816,-0.2722412 1.923838,-0.7078271 0.744126,-0.3811377 1.397505,-0.7985742 0.653379,-0.4355859 1.034516,-0.7441259 h 0.181494 z m 21.34371,-8.5120748 H 50.164977 q 0,1.8693896 0.562632,3.2668944 0.562631,1.3793554 1.5427,2.2686766 0.943769,0.8711719 2.232377,1.3067578 1.306758,0.4355859 2.867608,0.4355859 2.069033,0 4.156215,-0.8167236 2.105332,-0.834873 2.994654,-1.6334472 h 0.181494 v 3.7206297 q -1.724195,0.72597653 -3.520987,1.21601069 -1.796791,0.49003415 -3.775077,0.49003415 -5.045537,0 -7.876846,-2.72241194 -2.831308,-2.7405614 -2.831308,-7.7679488 0,-4.972939 2.704262,-7.894995 2.722412,-2.922055 7.150869,-2.922055 4.101768,0 6.315996,2.395722 2.232378,2.395723 2.232378,6.80603 z m -3.321343,-2.6135153 q -0.01815,-2.686113 -1.361206,-4.156216 -1.324907,-1.470102 -4.047319,-1.470102 -2.740561,0 -4.374009,1.615297 -1.615297,1.615298 -1.83309,4.011021 z M 87.226079,0 h -3.41209 v -11.543027 q 0,-1.397505 -0.163345,-2.613515 -0.163344,-1.23416 -0.59893,-1.923838 -0.453736,-0.762275 -1.306758,-1.125264 -0.853022,-0.381137 -2.214228,-0.381137 -1.397505,0 -2.922056,0.689677 -1.524551,0.689678 -2.922056,1.760493 V 0 h -3.412089 v -20.272895 h 3.412089 v 2.250528 q 1.597149,-1.324907 3.303194,-2.069033 1.706045,-0.744126 3.502836,-0.744126 3.285044,0 5.009238,1.978286 1.724195,1.978286 1.724195,5.698915 z M 110.76587,-9.7825337 H 95.828898 q 0,1.8693896 0.562632,3.2668944 0.562632,1.3793554 1.5427,2.2686766 0.943769,0.8711719 2.23238,1.3067578 1.30676,0.4355859 2.86761,0.4355859 2.06903,0 4.15621,-0.8167236 2.10533,-0.834873 2.99465,-1.6334472 h 0.1815 v 3.7206297 q -1.7242,0.72597653 -3.52099,1.21601069 -1.79679,0.49003415 -3.77508,0.49003415 -5.045533,0 -7.876841,-2.72241194 -2.831309,-2.7405614 -2.831309,-7.7679488 0,-4.972939 2.704263,-7.894995 2.722412,-2.922055 7.150867,-2.922055 4.10177,0 6.316,2.395722 2.23238,2.395723 2.23238,6.80603 z m -3.32135,-2.6135153 q -0.0181,-2.686113 -1.3612,-4.156216 -1.32491,-1.470102 -4.04732,-1.470102 -2.740564,0 -4.374011,1.615297 -1.615298,1.615298 -1.833091,4.011021 z m 21.14407,-4.156216 h -0.18149 q -0.76228,-0.181494 -1.48825,-0.254092 -0.70783,-0.09075 -1.6879,-0.09075 -1.579,0 -3.0491,0.707827 -1.4701,0.689678 -2.83131,1.796792 V 0 h -3.41209 v -20.272895 h 3.41209 v 2.994654 q 2.03274,-1.633448 3.57544,-2.304976 1.56085,-0.689678 3.17614,-0.689678 0.88932,0 1.28861,0.05445 0.39929,0.0363 1.19786,0.163344 z m 20.74477,-3.72063 -11.83341,27.7504532 h -3.64803 l 3.77507,-8.45762651 -8.07649,-19.29282669 h 3.70248 l 6.22525,15.0277146 6.2797,-15.0277146 z m 24.37468,12.5593944 q 0,1.5789989 -0.74413,3.1216991 -0.72597,1.5427001 -2.05088,2.6135155 -1.45195,1.16156241 -3.39394,1.81494128 -1.92384,0.65337888 -4.64625,0.65337888 -2.92206,0 -5.26333,-0.5444824 -2.32313,-0.54448239 -4.737,-1.61529776 v -4.5010545 h 0.25409 q 2.05089,1.7060449 4.737,2.6316649 2.68611,0.9256201 5.04554,0.9256201 3.33949,0 5.19073,-1.2523095 1.86939,-1.2523095 1.86939,-3.339492 0,-1.7967919 -0.88932,-2.6498144 -0.87117,-0.8530226 -2.66797,-1.3249076 -1.3612,-0.362988 -2.95835,-0.59893 -1.579,-0.235943 -3.35764,-0.598931 -3.59359,-0.762275 -5.33593,-2.595366 -1.72419,-1.85124 -1.72419,-4.809594 0,-3.393941 2.8676,-5.553721 2.86761,-2.177929 7.27792,-2.177929 2.84946,0 5.22703,0.544482 2.37757,0.544482 4.21066,1.343057 v 4.246962 h -0.25409 q -1.5427,-1.306757 -4.06547,-2.15978 -2.50462,-0.871172 -5.13628,-0.871172 -2.88576,0 -4.64625,1.197862 -1.74234,1.197861 -1.74234,3.0854 0,1.687895 0.87117,2.649814 0.87117,0.961919 3.06725,1.470103 1.16156,0.254091 3.30319,0.61708 2.14163,0.362988 3.62988,0.744126 3.01281,0.798574 4.53736,2.413872 1.52455,1.615297 1.52455,4.5192034 z m 16.02593,7.53200647 q -0.96192,0.25409178 -2.10533,0.4174365 -1.12526,0.16334472 -2.01459,0.16334472 -3.10354,0 -4.71884,-1.66974599 -1.6153,-1.669746 -1.6153,-5.3540769 V -17.405287 h -2.30498 v -2.867608 h 2.30498 v -5.825961 h 3.41209 v 5.825961 h 7.04197 v 2.867608 H 182.692 v 9.2380511 q 0,1.5971483 0.0726,2.504619 0.0726,0.8893212 0.50818,1.669746 0.39929,0.7259765 1.08897,1.0708154 0.70782,0.3266894 2.14163,0.3266894 0.83487,0 1.74234,-0.2359424 0.90747,-0.2540917 1.30676,-0.4174365 h 0.18149 z M 209.60758,0 h -3.39394 v -2.1597802 q -0.45374,0.3085401 -1.23416,0.8711719 -0.76228,0.54448236 -1.48825,0.8711718 Q 202.6382,0 201.53109,0.2722412 q -1.10711,0.29039061 -2.59537,0.29039061 -2.74056,0 -4.64625,-1.81494131 -1.90568,-1.8149413 -1.90568,-4.6281004 0,-2.3049754 0.98006,-3.7206297 0.99822,-1.4338034 2.83131,-2.2505274 1.85124,-0.816723 4.44661,-1.107114 2.59536,-0.290391 5.57187,-0.435586 V -13.9206 q 0,-1.161562 -0.41744,-1.923838 -0.39929,-0.762275 -1.16156,-1.197861 -0.72598,-0.417436 -1.74234,-0.562632 -1.01637,-0.145195 -2.12349,-0.145195 -1.34305,0 -2.99465,0.362988 -1.6516,0.344839 -3.41209,1.016367 h -0.18149 v -3.466538 q 0.99821,-0.272241 2.88575,-0.59893 1.88754,-0.32669 3.72063,-0.32669 2.14163,0 3.72063,0.362989 1.59715,0.344838 2.75871,1.197861 1.14342,0.834873 1.74235,2.15978 0.59893,1.324907 0.59893,3.285044 z m -3.39394,-4.9910886 v -5.6444674 q -1.56085,0.09075 -3.68433,0.272241 -2.10533,0.181494 -3.33949,0.5263331 -1.47011,0.4174365 -2.37758,1.3067577 -0.90747,0.8711718 -0.90747,2.413872 0,1.7423436 1.05267,2.6316649 1.05266,0.8711718 3.21244,0.8711718 1.7968,0 3.28505,-0.6896777 1.48825,-0.7078271 2.75871,-1.6878954 z m 24.95544,3.7206297 Q 229.46303,-0.45373533 227.92033,0 q -1.52455,0.45373533 -3.24874,0.45373533 -2.19608,0 -4.02917,-0.63522946 -1.83309,-0.65337888 -3.13985,-1.96013667 -1.32491,-1.3067577 -2.05088,-3.3031932 -0.72598,-1.9964354 -0.72598,-4.664399 0,-4.972939 2.72241,-7.804248 2.74056,-2.831308 7.22347,-2.831308 1.74234,0 3.41209,0.490034 1.68789,0.490034 3.0854,1.197861 v 3.793228 h -0.18149 q -1.56085,-1.216011 -3.2306,-1.86939 -1.6516,-0.653379 -3.2306,-0.653379 -2.9039,0 -4.5918,1.960137 -1.66974,1.941987 -1.66974,5.717065 0,3.6661813 1.63344,5.6444674 1.6516,1.9601366 4.6281,1.9601366 1.03452,0 2.10534,-0.2722412 1.07081,-0.2722412 1.92383,-0.7078271 0.74413,-0.3811377 1.39751,-0.7985742 0.65338,-0.4355859 1.03452,-0.7441259 h 0.18149 z M 253.94659,0 h -4.50106 l -8.13094,-8.875063 -2.21422,2.1053319 V 0 h -3.41209 v -28.240487 h 3.41209 v 18.113114 l 9.85513,-10.145522 h 4.30141 l -9.41955,9.365098 z"
           id="text12"
           class="cls-3"
           style="font-size:37.17px;font-family:NotoMono, 'Noto Mono';fill:#1f3151;fill-opacity:1"
           transform="translate(60.18,36.57)"
           aria-label="SceneryStack" /><path
           d="m 462.03906,528.91458 h -1.93359 v -12.5293 l -4.04297,8.52539 h -1.15234 l -4.01368,-8.52539 v 12.5293 h -1.80664 v -14.54102 h 2.63672 l 3.87696,8.0957 3.75,-8.0957 h 2.68554 z m 12.23633,0 h -1.82617 v -1.16211 q -0.24414,0.16601 -0.66406,0.46875 -0.41016,0.29296 -0.80079,0.46875 -0.45898,0.22461 -1.05468,0.37109 -0.59571,0.15625 -1.39649,0.15625 -1.47461,0 -2.5,-0.97656 -1.02539,-0.97657 -1.02539,-2.49024 0,-1.24023 0.52735,-2.00195 0.53711,-0.77148 1.52343,-1.21094 0.9961,-0.43945 2.39258,-0.5957 1.39649,-0.15625 2.99805,-0.23438 v -0.2832 q 0,-0.625 -0.22461,-1.03516 -0.21484,-0.41015 -0.625,-0.64453 -0.39063,-0.22461 -0.9375,-0.30273 -0.54688,-0.0781 -1.14258,-0.0781 -0.72266,0 -1.61133,0.19532 -0.88867,0.18554 -1.83593,0.54687 h -0.0977 v -1.86523 q 0.53711,-0.14649 1.55273,-0.32227 1.01563,-0.17578 2.00196,-0.17578 1.15234,0 2.00195,0.19531 0.85937,0.18555 1.48437,0.64453 0.61524,0.44922 0.9375,1.16211 0.32227,0.71289 0.32227,1.76758 z m -1.82617,-2.68555 v -3.03711 q -0.83985,0.0488 -1.98242,0.14648 -1.13282,0.0977 -1.79688,0.28321 -0.79101,0.22461 -1.2793,0.70312 -0.48828,0.46875 -0.48828,1.29883 0,0.9375 0.56641,1.41602 0.56641,0.46875 1.72852,0.46875 0.96679,0 1.76757,-0.3711 0.80078,-0.38086 1.48438,-0.9082 z m 14.20898,2.68555 h -1.83593 V 527.772 q -0.79102,0.68359 -1.6504,1.06445 -0.85937,0.38086 -1.86523,0.38086 -1.95312,0 -3.10547,-1.50391 -1.14258,-1.5039 -1.14258,-4.16992 0,-1.38672 0.39063,-2.4707 0.40039,-1.08399 1.07422,-1.8457 0.66406,-0.74219 1.54297,-1.13282 0.88867,-0.39062 1.83593,-0.39062 0.85938,0 1.52344,0.18554 0.66406,0.17579 1.39649,0.55665 v -4.72657 h 1.83593 z m -1.83593,-2.68555 v -6.25977 q -0.74219,-0.33203 -1.32813,-0.45898 -0.58594,-0.12695 -1.2793,-0.12695 -1.54297,0 -2.40234,1.07421 -0.85938,1.07422 -0.85938,3.04688 0,1.94336 0.66407,2.95898 0.66406,1.00586 2.1289,1.00586 0.78125,0 1.58203,-0.34179 0.80079,-0.35157 1.49415,-0.89844 z m 14.58007,-2.57813 h -8.03711 q 0,1.00586 0.30274,1.75782 0.30273,0.74218 0.83008,1.2207 0.50781,0.46875 1.20117,0.70312 0.70312,0.23438 1.54297,0.23438 1.11328,0 2.23633,-0.43945 1.13281,-0.44922 1.61132,-0.87891 h 0.0977 v 2.00195 q -0.92773,0.39063 -1.89453,0.6543 -0.9668,0.26367 -2.03125,0.26367 -2.71485,0 -4.23828,-1.46484 -1.52344,-1.47461 -1.52344,-4.17969 0,-2.67578 1.45508,-4.24805 1.46484,-1.57226 3.84765,-1.57226 2.20704,0 3.39844,1.28906 1.20117,1.28906 1.20117,3.66211 z m -1.78711,-1.40625 q -0.01,-1.44531 -0.73242,-2.23632 -0.71289,-0.79102 -2.17773,-0.79102 -1.47461,0 -2.35352,0.86914 -0.86914,0.86914 -0.98633,2.1582 z m 25.32227,-4.23828 -2.8418,10.90821 h -1.69922 l -2.80273,-8.40821 -2.7832,8.40821 h -1.68946 L 508.25,518.00637 h 1.91406 l 2.00196,8.44727 2.7246,-8.44727 h 1.51368 l 2.79297,8.44727 1.89453,-8.44727 z m 4.61914,-1.82617 h -2.07031 v -1.9043 h 2.07031 z m -0.11719,12.73438 h -1.83593 v -10.90821 h 1.83593 z m 9.29688,-0.0977 q -0.51758,0.13672 -1.13281,0.22461 -0.60547,0.0879 -1.08399,0.0879 -1.66992,0 -2.53906,-0.89844 -0.86914,-0.89844 -0.86914,-2.88086 v -5.80078 h -1.24024 v -1.54297 h 1.24024 v -3.13476 h 1.83594 v 3.13476 h 3.78906 v 1.54297 h -3.78906 v 4.9707 q 0,0.85938 0.0391,1.34766 0.0391,0.47852 0.27344,0.89844 0.21484,0.39062 0.58593,0.57617 0.38086,0.17578 1.15235,0.17578 0.44922,0 0.9375,-0.12695 0.48828,-0.13672 0.70312,-0.22461 h 0.0977 z m 11.33789,0.0977 h -1.83594 v -6.21094 q 0,-0.75196 -0.0879,-1.40625 -0.0879,-0.66406 -0.32227,-1.03516 -0.24414,-0.41015 -0.70312,-0.60547 -0.45898,-0.20508 -1.19141,-0.20508 -0.75195,0 -1.57226,0.3711 -0.82031,0.37109 -1.57227,0.94726 v 8.14454 h -1.83594 v -15.19532 h 1.83594 v 5.49805 q 0.85938,-0.71289 1.77735,-1.11328 0.91796,-0.40039 1.88476,-0.40039 1.76758,0 2.69531,1.06445 0.92774,1.06445 0.92774,3.06641 z"
           id="text1"
           style="font-size:20px;-inkscape-font-specification:'sans-serif, Normal';white-space:pre;fill:#121c2f;fill-opacity:0.75"
           transform="translate(-386.47782,-527.98839)"
           aria-label="Made with" /></g></g></g></svg>
